# xmcd CD database file
#
# Track frame offsets:
#	183
#	15368
#	30248
#	41593
#	55558
#	70423
#	81328
#	89118
#	102450
#	123400
#	135318
#	149413
#
# Disc length: 2153 seconds
#
# Revision: 2
# Processed by: cddbd v1.5.2PL0 Copyright (c) Steve Scherf et al.
# Submitted via: CDex 1.70beta2
#
DISCID=9d08670c
DTITLE=Gott, Karel - Country Hits
DYEAR=0
DGENRE=Country
TTITLE0=Cryin'
TTITLE1=Della and The Dealer
TTITLE2=All The Gold in California
TTITLE3=Why Me,Lord
TTITLE4=One Hundfed Singers
TTITLE5=Turn,Turn,Turn
TTITLE6=Take Me Home Country Roads
TTITLE7=Together Again
TTITLE8=City of New Orleans
TTITLE9=One Glass of Sweet Red Wine
TTITLE10=Till I Can Make it on My Own
TTITLE11=Whisky on The Rocks
EXTD=
EXTT0=
EXTT1=
EXTT2=
EXTT3=
EXTT4=
EXTT5=
EXTT6=
EXTT7=
EXTT8=
EXTT9=
EXTT10=
EXTT11=
PLAYORDER=
